<svg width="286" height="112" viewBox="0 0 286 112" fill="none" xmlns="http://www.w3.org/2000/svg">
<path d="M265.587 41.8228H266.774V36.5213H268.659V35.4791H263.702V36.5213H265.587V41.8228ZM269.363 41.8228H270.551V37.5635H270.587L272.245 41.8228H273.151L274.801 37.5635H274.846V41.8228H276.033V35.4791H274.547L272.698 40.2187L270.85 35.4791H269.363V41.8228Z" fill="#FF6F9D"/>
<path d="M133.183 45.8377C132.929 45.5839 132.458 45.2395 131.769 44.8046C131.117 44.3696 130.301 43.9527 129.322 43.554C128.38 43.1552 127.347 42.8108 126.223 42.5208C125.099 42.1946 123.958 42.0315 122.798 42.0315C120.768 42.0315 119.227 42.4121 118.176 43.1733C117.161 43.9346 116.653 45.0039 116.653 46.3814C116.653 47.4326 116.98 48.2664 117.632 48.8826C118.285 49.4988 119.263 50.0244 120.568 50.4594C121.873 50.8944 123.504 51.3657 125.462 51.8732C127.999 52.4894 130.192 53.2506 132.041 54.1569C133.926 55.0269 135.358 56.1868 136.337 57.6368C137.352 59.0505 137.859 60.9355 137.859 63.2917C137.859 65.3579 137.479 67.1341 136.717 68.6203C135.956 70.0703 134.905 71.2484 133.564 72.1546C132.222 73.0609 130.7 73.7315 128.996 74.1665C127.293 74.5652 125.48 74.7646 123.559 74.7646C121.638 74.7646 119.716 74.5652 117.795 74.1665C115.874 73.7677 114.025 73.2059 112.249 72.4809C110.473 71.7196 108.842 70.8134 107.355 69.7622L110.672 63.2917C110.998 63.6179 111.578 64.0529 112.412 64.5967C113.246 65.1041 114.261 65.6298 115.457 66.1735C116.653 66.681 117.958 67.116 119.372 67.4785C120.786 67.841 122.218 68.0222 123.668 68.0222C125.698 68.0222 127.238 67.6778 128.289 66.9891C129.341 66.3004 129.866 65.3216 129.866 64.0529C129.866 62.8929 129.449 61.9867 128.616 61.3342C127.782 60.6817 126.622 60.1199 125.136 59.6486C123.649 59.1411 121.891 58.5974 119.861 58.0174C117.433 57.3287 115.403 56.5674 113.772 55.7337C112.14 54.8637 110.926 53.7762 110.128 52.4713C109.331 51.1663 108.932 49.5351 108.932 47.5776C108.932 44.9314 109.548 42.7202 110.781 40.944C112.05 39.1315 113.753 37.7722 115.892 36.866C118.031 35.9235 120.405 35.4522 123.015 35.4522C124.828 35.4522 126.531 35.6516 128.126 36.0504C129.757 36.4491 131.28 36.9747 132.694 37.6272C134.107 38.2797 135.376 38.9865 136.5 39.7478L133.183 45.8377ZM140.215 65.9016C140.215 64.0529 140.723 62.4398 141.738 61.0624C142.789 59.6486 144.239 58.5612 146.087 57.7999C147.936 57.0387 150.057 56.6581 152.449 56.6581C153.645 56.6581 154.86 56.7487 156.092 56.9299C157.325 57.1112 158.394 57.4012 159.3 57.7999V56.2774C159.3 54.465 158.757 53.0694 157.669 52.0907C156.618 51.1119 155.041 50.6226 152.939 50.6226C151.38 50.6226 149.894 50.8944 148.48 51.4382C147.066 51.9819 145.58 52.7794 144.021 53.8306L141.683 49.0457C143.568 47.8132 145.489 46.8889 147.447 46.2726C149.441 45.6564 151.525 45.3483 153.7 45.3483C157.76 45.3483 160.913 46.3633 163.161 48.3932C165.445 50.4232 166.586 53.3231 166.586 57.0931V66.1735C166.586 66.9347 166.713 67.4785 166.967 67.8047C167.257 68.131 167.71 68.3303 168.326 68.4028V74.3296C167.674 74.4383 167.076 74.529 166.532 74.6015C166.025 74.674 165.59 74.7102 165.227 74.7102C163.777 74.7102 162.672 74.384 161.91 73.7315C161.185 73.079 160.732 72.2815 160.551 71.339L160.388 69.8709C159.155 71.4659 157.615 72.6984 155.766 73.5684C153.917 74.4383 152.032 74.8733 150.111 74.8733C148.226 74.8733 146.522 74.4927 145 73.7315C143.514 72.934 142.336 71.8646 141.466 70.5234C140.632 69.1459 140.215 67.6053 140.215 65.9016ZM157.941 67.3697C158.34 66.9347 158.666 66.4997 158.92 66.0648C159.173 65.6298 159.3 65.231 159.3 64.8685V61.9867C158.43 61.6242 157.488 61.3523 156.473 61.1711C155.458 60.9536 154.497 60.8449 153.591 60.8449C151.706 60.8449 150.147 61.2617 148.915 62.0955C147.719 62.8929 147.121 63.9623 147.121 65.3035C147.121 66.0285 147.32 66.7172 147.719 67.3697C148.117 68.0222 148.697 68.5478 149.459 68.9466C150.22 69.3453 151.126 69.5447 152.177 69.5447C153.265 69.5447 154.334 69.3453 155.385 68.9466C156.437 68.5116 157.289 67.986 157.941 67.3697ZM179.509 74.3296L169.015 45.8377H176.573L183.75 67.696L190.982 45.8377H197.888L187.448 74.3296H179.509ZM208.86 74.3296L198.366 45.8377H205.924L213.102 67.696L220.333 45.8377H227.239L216.799 74.3296H208.86ZM230.545 74.3296V45.8377H237.831V74.3296H230.545ZM230.545 41.8684V34.6366H237.831V41.8684H230.545ZM257.073 74.8733C254.789 74.8733 252.723 74.4927 250.875 73.7315C249.026 72.934 247.449 71.8646 246.144 70.5234C244.839 69.1459 243.824 67.5872 243.099 65.8473C242.41 64.071 242.066 62.2042 242.066 60.2467C242.066 57.528 242.664 55.045 243.86 52.7975C245.093 50.5501 246.833 48.7557 249.08 47.4145C251.364 46.037 254.046 45.3483 257.128 45.3483C260.245 45.3483 262.909 46.037 265.12 47.4145C267.332 48.7557 269.017 50.5501 270.177 52.7975C271.373 55.0087 271.972 57.4012 271.972 59.9749C271.972 60.4099 271.953 60.863 271.917 61.3342C271.881 61.7692 271.845 62.1317 271.808 62.4217H249.787C249.932 63.8717 250.349 65.1404 251.038 66.2279C251.763 67.3154 252.669 68.1491 253.756 68.7291C254.88 69.2728 256.076 69.5447 257.345 69.5447C258.795 69.5447 260.154 69.2003 261.423 68.5116C262.728 67.7866 263.616 66.8441 264.087 65.6841L270.34 67.4241C269.652 68.8741 268.655 70.1609 267.35 71.2847C266.081 72.4084 264.577 73.2965 262.837 73.949C261.097 74.5652 259.176 74.8733 257.073 74.8733ZM249.624 57.7999H264.522C264.377 56.3499 263.96 55.0993 263.272 54.0481C262.619 52.9606 261.749 52.1269 260.662 51.5469C259.574 50.9307 258.36 50.6226 257.019 50.6226C255.714 50.6226 254.518 50.9307 253.43 51.5469C252.379 52.1269 251.509 52.9606 250.82 54.0481C250.168 55.0993 249.769 56.3499 249.624 57.7999Z" fill="#FF2F92"/>
<path d="M76.1087 27.7058L91.9498 25.7899L91.7151 83.8127L65.4887 87.1455L57.5039 105.251L45.4625 89.5883L14.5891 93.2403L3.62207 36.6626L17.8715 34.932" stroke="#6088FF" stroke-width="6.49722" stroke-linecap="square" stroke-linejoin="round"/>
<path d="M40.8613 32.0698L52.8506 30.4904" stroke="#6088FF" stroke-width="6.49722" stroke-linecap="square" stroke-linejoin="round"/>
<path d="M30.0131 37.5648L28.2415 24.1168C26.961 14.3963 33.8373 5.47302 43.5994 4.187C53.3615 2.90098 62.3141 9.73904 63.5946 19.4595L65.3662 32.9076" stroke="#6088FF" stroke-width="6.49722" stroke-linecap="square" stroke-linejoin="round"/>
<path d="M36.8344 67.7588C44.7916 77.7356 62.4778 77.0918 67.5912 62.9248" stroke="#FF2F92" stroke-width="4.88461" stroke-miterlimit="10"/>
<path d="M45.1482 52.4134C42.3467 48.0938 36.3501 48.1197 34.7575 54.0256" stroke="#6088FF" stroke-width="3.57975" stroke-miterlimit="10"/>
<path d="M65.4314 49.8026C62.6299 45.4829 56.6333 45.5089 55.0407 51.4148" stroke="#6088FF" stroke-width="3.57975" stroke-miterlimit="10"/>
</svg>
